<svg width="34" height="24" viewBox="0 0 34 24" fill="none" xmlns="http://www.w3.org/2000/svg">
<path d="M13.0608 13.0607C13.6465 12.4749 13.6465 11.5251 13.0608 10.9393L3.51482 1.3934C2.92903 0.807611 1.97928 0.807611 1.3935 1.3934C0.807712 1.97919 0.807712 2.92893 1.3935 3.51472L9.87878 12L1.3935 20.4853C0.807712 21.0711 0.807712 22.0208 1.3935 22.6066C1.97928 23.1924 2.92903 23.1924 3.51482 22.6066L13.0608 13.0607ZM12 13.5H12.0001V10.5H12V13.5Z" fill="#719287"/>
<path d="M23.0608 13.0607C23.6465 12.4749 23.6465 11.5251 23.0608 10.9393L13.5148 1.3934C12.929 0.807611 11.9793 0.807611 11.3935 1.3934C10.8077 1.97919 10.8077 2.92893 11.3935 3.51472L19.8788 12L11.3935 20.4853C10.8077 21.0711 10.8077 22.0208 11.3935 22.6066C11.9793 23.1924 12.929 23.1924 13.5148 22.6066L23.0608 13.0607ZM22 13.5H22.0001V10.5H22V13.5Z" fill="#719287"/>
<path d="M33.0608 13.0607C33.6465 12.4749 33.6465 11.5251 33.0608 10.9393L23.5148 1.3934C22.929 0.807611 21.9793 0.807611 21.3935 1.3934C20.8077 1.97919 20.8077 2.92893 21.3935 3.51472L29.8788 12L21.3935 20.4853C20.8077 21.0711 20.8077 22.0208 21.3935 22.6066C21.9793 23.1924 22.929 23.1924 23.5148 22.6066L33.0608 13.0607ZM32 13.5H32.0001V10.5H32V13.5Z" fill="#719287"/>
</svg>
