<svg width="34" height="24" viewBox="0 0 34 24" fill="none" xmlns="http://www.w3.org/2000/svg">
<path d="M20.9393 13.0607C20.3536 12.4749 20.3536 11.5251 20.9393 10.9393L30.4853 1.3934C31.0711 0.807611 32.0208 0.807611 32.6066 1.3934C33.1924 1.97919 33.1924 2.92893 32.6066 3.51472L24.1213 12L32.6066 20.4853C33.1924 21.0711 33.1924 22.0208 32.6066 22.6066C32.0208 23.1924 31.0711 23.1924 30.4853 22.6066L20.9393 13.0607ZM22.0001 13.5H22V10.5H22.0001V13.5Z" fill="#719287"/>
<path d="M10.9393 13.0607C10.3536 12.4749 10.3536 11.5251 10.9393 10.9393L20.4853 1.3934C21.0711 0.807611 22.0208 0.807611 22.6066 1.3934C23.1924 1.97919 23.1924 2.92893 22.6066 3.51472L14.1213 12L22.6066 20.4853C23.1924 21.0711 23.1924 22.0208 22.6066 22.6066C22.0208 23.1924 21.0711 23.1924 20.4853 22.6066L10.9393 13.0607ZM12.0001 13.5H12V10.5H12.0001V13.5Z" fill="#719287"/>
<path d="M0.939339 13.0607C0.353553 12.4749 0.353553 11.5251 0.939339 10.9393L10.4853 1.3934C11.0711 0.807611 12.0208 0.807611 12.6066 1.3934C13.1924 1.97919 13.1924 2.92893 12.6066 3.51472L4.12132 12L12.6066 20.4853C13.1924 21.0711 13.1924 22.0208 12.6066 22.6066C12.0208 23.1924 11.0711 23.1924 10.4853 22.6066L0.939339 13.0607ZM2.0001 13.5H2V10.5H2.0001V13.5Z" fill="#719287"/>
</svg>
