<svg width="35" height="35" viewBox="0 0 35 35" fill="none" xmlns="http://www.w3.org/2000/svg">
<path d="M9.72222 0C4.36139 0 0 4.36139 0 9.72222V25.2778C0 30.6386 4.36139 35 9.72222 35H25.2778C30.6386 35 35 30.6386 35 25.2778V9.72222C35 4.36139 30.6386 0 25.2778 0H9.72222ZM9.72222 3.88889H25.2778C28.4939 3.88889 31.1111 6.50611 31.1111 9.72222V25.2778C31.1111 28.4939 28.4939 31.1111 25.2778 31.1111H9.72222C6.50611 31.1111 3.88889 28.4939 3.88889 25.2778V9.72222C3.88889 6.50611 6.50611 3.88889 9.72222 3.88889ZM27.2222 5.83333C26.7065 5.83333 26.2119 6.03819 25.8473 6.40285C25.4826 6.7675 25.2778 7.26208 25.2778 7.77778C25.2778 8.29348 25.4826 8.78805 25.8473 9.15271C26.2119 9.51736 26.7065 9.72222 27.2222 9.72222C27.7379 9.72222 28.2325 9.51736 28.5972 9.15271C28.9618 8.78805 29.1667 8.29348 29.1667 7.77778C29.1667 7.26208 28.9618 6.7675 28.5972 6.40285C28.2325 6.03819 27.7379 5.83333 27.2222 5.83333ZM17.5 7.77778C12.1392 7.77778 7.77778 12.1392 7.77778 17.5C7.77778 22.8608 12.1392 27.2222 17.5 27.2222C22.8608 27.2222 27.2222 22.8608 27.2222 17.5C27.2222 12.1392 22.8608 7.77778 17.5 7.77778ZM17.5 11.6667C20.7161 11.6667 23.3333 14.2839 23.3333 17.5C23.3333 20.7161 20.7161 23.3333 17.5 23.3333C14.2839 23.3333 11.6667 20.7161 11.6667 17.5C11.6667 14.2839 14.2839 11.6667 17.5 11.6667Z" fill="#434343"/>
</svg>
