<svg width="35" height="35" viewBox="0 0 35 35" fill="none" xmlns="http://www.w3.org/2000/svg">
<path d="M6.88334 3.88889C7 5.61944 7.29167 7.31111 7.75833 8.925L5.425 11.2583C4.62778 8.925 4.12222 6.45556 3.94722 3.88889H6.88334ZM26.0556 27.2611C27.7083 27.7278 29.4 28.0194 31.1111 28.1361V31.0333C28.5444 30.8583 26.075 30.3528 23.7222 29.575L26.0556 27.2611ZM8.75 0H1.94445C0.875 0 0 0.875 0 1.94444C0 20.2028 14.7972 35 33.0556 35C34.125 35 35 34.125 35 33.0556V26.2694C35 25.2 34.125 24.325 33.0556 24.325C30.6444 24.325 28.2917 23.9361 26.1139 23.2167C25.9194 23.1389 25.7056 23.1194 25.5111 23.1194C25.0056 23.1194 24.5194 23.3139 24.1306 23.6833L19.8528 27.9611C14.35 25.1417 9.83889 20.65 7.03889 15.1472L11.3167 10.8694C11.8611 10.325 12.0167 9.56667 11.8028 8.88611C11.0833 6.70833 10.6944 4.375 10.6944 1.94444C10.6944 0.875 9.81944 0 8.75 0Z" fill="#434343"/>
</svg>
