<svg width="35" height="35" viewBox="0 0 35 35" fill="none" xmlns="http://www.w3.org/2000/svg">
<path d="M5.83333 0C2.63478 0 0 2.63478 0 5.83333V29.1667C0 32.3652 2.63478 35 5.83333 35H29.1667C32.3652 35 35 32.3652 35 29.1667V5.83333C35 2.63478 32.3652 0 29.1667 0H5.83333ZM5.83333 3.88889H29.1667C30.2653 3.88889 31.1111 4.73466 31.1111 5.83333V29.1667C31.1111 30.2653 30.2653 31.1111 29.1667 31.1111H5.83333C4.73466 31.1111 3.88889 30.2653 3.88889 29.1667V5.83333C3.88889 4.73466 4.73466 3.88889 5.83333 3.88889ZM17.5 7.77778V21.3889C17.5 22.4876 16.6542 23.3333 15.5556 23.3333C14.4569 23.3333 13.6111 22.4876 13.6111 21.3889C13.6111 20.2902 14.4569 19.4444 15.5556 19.4444V15.5556C12.357 15.5556 9.72222 18.1903 9.72222 21.3889C9.72222 24.5874 12.357 27.2222 15.5556 27.2222C18.7541 27.2222 21.3889 24.5874 21.3889 21.3889V14.063C22.587 14.9165 23.8372 15.5556 25.2778 15.5556V11.6667C25.1857 11.6667 23.8441 11.2407 22.908 10.4248C21.9719 9.6089 21.3889 8.5847 21.3889 7.77778H17.5Z" fill="#434343"/>
</svg>
